<svg width="14" height="14" viewBox="0 0 14 14" fill="none" xmlns="http://www.w3.org/2000/svg">
<g clip-path="url(#clip0_472_3096)">
<path d="M0 10.4991C0 10.9117 0.163888 11.3074 0.455612 11.5991C0.747335 11.8908 1.143 12.0547 1.55556 12.0547H12.4444C12.857 12.0547 13.2527 11.8908 13.5444 11.5991C13.8361 11.3074 14 10.9117 14 10.4991V8.55469H0V10.4991Z" fill="#138808"/>
<path d="M14 5.44531V3.50087C14 3.08831 13.8361 2.69265 13.5444 2.40092C13.2527 2.1092 12.857 1.94531 12.4444 1.94531H1.55556C1.143 1.94531 0.747335 2.1092 0.455612 2.40092C0.163888 2.69265 0 3.08831 0 3.50087L0 5.44531H14Z" fill="#FF9933"/>
<path d="M0 5.3125H14V8.683H0V5.3125Z" fill="#F7F7F7"/>
<path d="M6.99989 8.55642C7.859 8.55642 8.55545 7.85998 8.55545 7.00087C8.55545 6.14176 7.859 5.44531 6.99989 5.44531C6.14078 5.44531 5.44434 6.14176 5.44434 7.00087C5.44434 7.85998 6.14078 8.55642 6.99989 8.55642Z" fill="#000080"/>
<path d="M7 8.3125C7.72487 8.3125 8.3125 7.72487 8.3125 7C8.3125 6.27513 7.72487 5.6875 7 5.6875C6.27513 5.6875 5.6875 6.27513 5.6875 7C5.6875 7.72487 6.27513 8.3125 7 8.3125Z" fill="#F7F7F7"/>
<path d="M7.0387 6.51615L6.99982 6.76892L6.96093 6.51615L6.99982 5.75781L7.0387 6.51615ZM6.67782 5.8002L6.83648 6.54259L6.93954 6.7767L6.91154 6.52276L6.67782 5.8002ZM6.37759 5.92465L6.72293 6.60053L6.88315 6.80003L6.79059 6.56165L6.37759 5.92465ZM6.11976 6.1222L6.62843 6.68609L6.83493 6.83737L6.68365 6.63087L6.11976 6.1222ZM5.9222 6.38003L6.5592 6.79303L6.79759 6.88559L6.59809 6.72537L5.9222 6.38003ZM5.79776 6.68026L6.52032 6.91398L6.77426 6.94198L6.54015 6.83892L5.79776 6.68026ZM5.75537 7.00226L6.5137 7.04115L6.76648 7.00226L6.5137 6.96337L5.75537 7.00226ZM5.79776 7.32426L6.54015 7.16559L6.77426 7.06253L6.52032 7.09053L5.79776 7.32426ZM5.9222 7.62448L6.59809 7.27915L6.79759 7.11892L6.5592 7.21148L5.9222 7.62448ZM6.11976 7.88231L6.68365 7.37365L6.83493 7.16715L6.62843 7.31842L6.11976 7.88231ZM6.37759 8.07987L6.79059 7.44287L6.88315 7.20448L6.72293 7.40398L6.37759 8.07987ZM6.67782 8.20431L6.91154 7.48176L6.93954 7.22781L6.83648 7.46192L6.67782 8.20431ZM6.99982 8.2467L7.0387 7.48837L6.99982 7.23559L6.96093 7.48837L6.99982 8.2467ZM7.32182 8.20431L7.16315 7.46192L7.06009 7.22781L7.08809 7.48176L7.32182 8.20431ZM7.62204 8.07987L7.2767 7.40398L7.11648 7.20448L7.20904 7.44287L7.62204 8.07987ZM7.87987 7.88231L7.3712 7.31842L7.1647 7.16715L7.31598 7.37365L7.87987 7.88231ZM8.07743 7.62448L7.44043 7.21148L7.20204 7.11892L7.40154 7.27915L8.07743 7.62448ZM8.20187 7.32426L7.47932 7.09053L7.22537 7.06253L7.45948 7.16559L8.20187 7.32426ZM8.24426 7.00226L7.48593 6.96337L7.23315 7.00226L7.48593 7.04115L8.24426 7.00226ZM8.20187 6.68026L7.45948 6.83892L7.22537 6.94198L7.47932 6.91398L8.20187 6.68026ZM8.07743 6.38003L7.40154 6.72537L7.20204 6.88559L7.44043 6.79303L8.07743 6.38003ZM7.87987 6.1222L7.31598 6.63087L7.1647 6.83737L7.3712 6.68609L7.87987 6.1222ZM7.62204 5.92465L7.20904 6.56165L7.11648 6.80003L7.2767 6.60053L7.62204 5.92465ZM7.32182 5.8002L7.08809 6.52276L7.06009 6.7767L7.16315 6.54259L7.32182 5.8002Z" fill="#6666B3"/>
<path d="M6.82875 5.78056C6.87171 5.78056 6.90653 5.74573 6.90653 5.70278C6.90653 5.65982 6.87171 5.625 6.82875 5.625C6.7858 5.625 6.75098 5.65982 6.75098 5.70278C6.75098 5.74573 6.7858 5.78056 6.82875 5.78056Z" fill="#000080"/>
<path d="M6.49868 5.86649C6.54163 5.86649 6.57645 5.83167 6.57645 5.78872C6.57645 5.74576 6.54163 5.71094 6.49868 5.71094C6.45572 5.71094 6.4209 5.74576 6.4209 5.78872C6.4209 5.83167 6.45572 5.86649 6.49868 5.86649Z" fill="#000080"/>
<path d="M6.20229 6.03837C6.24524 6.03837 6.28007 6.00355 6.28007 5.96059C6.28007 5.91763 6.24524 5.88281 6.20229 5.88281C6.15933 5.88281 6.12451 5.91763 6.12451 5.96059C6.12451 6.00355 6.15933 6.03837 6.20229 6.03837Z" fill="#000080"/>
<path d="M5.9601 6.28056C6.00306 6.28056 6.03788 6.24573 6.03788 6.20278C6.03788 6.15982 6.00306 6.125 5.9601 6.125C5.91715 6.125 5.88232 6.15982 5.88232 6.20278C5.88232 6.24573 5.91715 6.28056 5.9601 6.28056Z" fill="#000080"/>
<path d="M5.78969 6.57743C5.83265 6.57743 5.86747 6.54261 5.86747 6.49965C5.86747 6.4567 5.83265 6.42188 5.78969 6.42188C5.74674 6.42188 5.71191 6.4567 5.71191 6.49965C5.71191 6.54261 5.74674 6.57743 5.78969 6.57743Z" fill="#000080"/>
<path d="M5.70082 6.90556C5.74378 6.90556 5.7786 6.87073 5.7786 6.82778C5.7786 6.78482 5.74378 6.75 5.70082 6.75C5.65787 6.75 5.62305 6.78482 5.62305 6.82778C5.62305 6.87073 5.65787 6.90556 5.70082 6.90556Z" fill="#000080"/>
<path d="M5.70082 7.24931C5.74378 7.24931 5.7786 7.21448 5.7786 7.17153C5.7786 7.12857 5.74378 7.09375 5.70082 7.09375C5.65787 7.09375 5.62305 7.12857 5.62305 7.17153C5.62305 7.21448 5.65787 7.24931 5.70082 7.24931Z" fill="#000080"/>
<path d="M5.78969 7.58524C5.83265 7.58524 5.86747 7.55042 5.86747 7.50747C5.86747 7.46451 5.83265 7.42969 5.78969 7.42969C5.74674 7.42969 5.71191 7.46451 5.71191 7.50747C5.71191 7.55042 5.74674 7.58524 5.78969 7.58524Z" fill="#000080"/>
<path d="M5.9601 7.87431C6.00306 7.87431 6.03788 7.83948 6.03788 7.79653C6.03788 7.75357 6.00306 7.71875 5.9601 7.71875C5.91715 7.71875 5.88232 7.75357 5.88232 7.79653C5.88232 7.83948 5.91715 7.87431 5.9601 7.87431Z" fill="#000080"/>
<path d="M6.20229 8.11649C6.24524 8.11649 6.28007 8.08167 6.28007 8.03871C6.28007 7.99576 6.24524 7.96094 6.20229 7.96094C6.15933 7.96094 6.12451 7.99576 6.12451 8.03871C6.12451 8.08167 6.15933 8.11649 6.20229 8.11649Z" fill="#000080"/>
<path d="M6.49868 8.28837C6.54163 8.28837 6.57645 8.25355 6.57645 8.21059C6.57645 8.16764 6.54163 8.13281 6.49868 8.13281C6.45572 8.13281 6.4209 8.16764 6.4209 8.21059C6.4209 8.25355 6.45572 8.28837 6.49868 8.28837Z" fill="#000080"/>
<path d="M6.82875 8.38212C6.87171 8.38212 6.90653 8.3473 6.90653 8.30434C6.90653 8.26138 6.87171 8.22656 6.82875 8.22656C6.7858 8.22656 6.75098 8.26138 6.75098 8.30434C6.75098 8.3473 6.7858 8.38212 6.82875 8.38212Z" fill="#000080"/>
<path d="M7.17104 8.38212C7.214 8.38212 7.24882 8.3473 7.24882 8.30434C7.24882 8.26138 7.214 8.22656 7.17104 8.22656C7.12808 8.22656 7.09326 8.26138 7.09326 8.30434C7.09326 8.3473 7.12808 8.38212 7.17104 8.38212Z" fill="#000080"/>
<path d="M7.50161 8.28837C7.54456 8.28837 7.57938 8.25355 7.57938 8.21059C7.57938 8.16764 7.54456 8.13281 7.50161 8.13281C7.45865 8.13281 7.42383 8.16764 7.42383 8.21059C7.42383 8.25355 7.45865 8.28837 7.50161 8.28837Z" fill="#000080"/>
<path d="M7.79799 8.11649C7.84095 8.11649 7.87577 8.08167 7.87577 8.03871C7.87577 7.99576 7.84095 7.96094 7.79799 7.96094C7.75504 7.96094 7.72021 7.99576 7.72021 8.03871C7.72021 8.08167 7.75504 8.11649 7.79799 8.11649Z" fill="#000080"/>
<path d="M8.04018 7.87431C8.08314 7.87431 8.11796 7.83948 8.11796 7.79653C8.11796 7.75357 8.08314 7.71875 8.04018 7.71875C7.99722 7.71875 7.9624 7.75357 7.9624 7.79653C7.9624 7.83948 7.99722 7.87431 8.04018 7.87431Z" fill="#000080"/>
<path d="M8.21059 7.58524C8.25355 7.58524 8.28837 7.55042 8.28837 7.50747C8.28837 7.46451 8.25355 7.42969 8.21059 7.42969C8.16764 7.42969 8.13281 7.46451 8.13281 7.50747C8.13281 7.55042 8.16764 7.58524 8.21059 7.58524Z" fill="#000080"/>
<path d="M8.29946 7.24931C8.34241 7.24931 8.37724 7.21448 8.37724 7.17153C8.37724 7.12857 8.34241 7.09375 8.29946 7.09375C8.2565 7.09375 8.22168 7.12857 8.22168 7.17153C8.22168 7.21448 8.2565 7.24931 8.29946 7.24931Z" fill="#000080"/>
<path d="M8.29946 6.90556C8.34241 6.90556 8.37724 6.87073 8.37724 6.82778C8.37724 6.78482 8.34241 6.75 8.29946 6.75C8.2565 6.75 8.22168 6.78482 8.22168 6.82778C8.22168 6.87073 8.2565 6.90556 8.29946 6.90556Z" fill="#000080"/>
<path d="M8.21059 6.57743C8.25355 6.57743 8.28837 6.54261 8.28837 6.49965C8.28837 6.4567 8.25355 6.42188 8.21059 6.42188C8.16764 6.42188 8.13281 6.4567 8.13281 6.49965C8.13281 6.54261 8.16764 6.57743 8.21059 6.57743Z" fill="#000080"/>
<path d="M8.04018 6.28056C8.08314 6.28056 8.11796 6.24573 8.11796 6.20278C8.11796 6.15982 8.08314 6.125 8.04018 6.125C7.99722 6.125 7.9624 6.15982 7.9624 6.20278C7.9624 6.24573 7.99722 6.28056 8.04018 6.28056Z" fill="#000080"/>
<path d="M7.79799 6.03837C7.84095 6.03837 7.87577 6.00355 7.87577 5.96059C7.87577 5.91763 7.84095 5.88281 7.79799 5.88281C7.75504 5.88281 7.72021 5.91763 7.72021 5.96059C7.72021 6.00355 7.75504 6.03837 7.79799 6.03837Z" fill="#000080"/>
<path d="M7.50161 5.86649C7.54456 5.86649 7.57938 5.83167 7.57938 5.78872C7.57938 5.74576 7.54456 5.71094 7.50161 5.71094C7.45865 5.71094 7.42383 5.74576 7.42383 5.78872C7.42383 5.83167 7.45865 5.86649 7.50161 5.86649Z" fill="#000080"/>
<path d="M7.17104 5.78056C7.214 5.78056 7.24882 5.74573 7.24882 5.70278C7.24882 5.65982 7.214 5.625 7.17104 5.625C7.12808 5.625 7.09326 5.65982 7.09326 5.70278C7.09326 5.74573 7.12808 5.78056 7.17104 5.78056Z" fill="#000080"/>
<path d="M6.9999 7.34844C7.1932 7.34844 7.3499 7.19174 7.3499 6.99844C7.3499 6.80514 7.1932 6.64844 6.9999 6.64844C6.8066 6.64844 6.6499 6.80514 6.6499 6.99844C6.6499 7.19174 6.8066 7.34844 6.9999 7.34844Z" fill="#000080"/>
</g>
<defs>
<clipPath id="clip0_472_3096">
<rect width="14" height="14" fill="white"/>
</clipPath>
</defs>
</svg>
